<?xml version="1.0" encoding="iso-8859-1"?>
<!-- Generator: Adobe Illustrator 19.0.0, SVG Export Plug-In . SVG Version: 6.00 Build 0)  -->
<svg version="1.1" id="Capa_1" xmlns="http://www.w3.org/2000/svg" xmlns:xlink="http://www.w3.org/1999/xlink" x="0px" y="0px"
	 viewBox="0 0 512 512" style="enable-background:new 0 0 512 512;" xml:space="preserve">
<g>
	<g>
		<path d="M306.58,134.76c-10.258-20.516-22.694-34.719-35.541-41.051v147.252h60.167
			C329.493,200.679,320.905,163.412,306.58,134.76z"/>
	</g>
</g>
<g>
	<g>
		<path d="M271.039,270.956v0.001v147.251c12.846-6.332,25.283-20.536,35.541-41.051c14.325-28.65,22.913-65.919,24.626-106.201
			H271.039z"/>
	</g>
</g>
<g>
	<g>
		<path d="M180.876,270.957c1.713,40.283,10.301,77.551,24.626,106.201c10.258,20.516,22.694,34.719,35.541,41.051V270.957H180.876z
			"/>
	</g>
</g>
<g>
	<g>
		<path d="M205.502,134.76c-14.325,28.65-22.913,65.918-24.626,106.201h60.167V93.71C228.197,100.042,215.76,114.246,205.502,134.76
			z"/>
	</g>
</g>
<g>
	<g>
		<path d="M323.81,104.462c3.366,5.204,6.574,10.833,9.598,16.883c16.326,32.653,26.044,74.67,27.817,119.616h60.104
			C415.845,180.029,377.301,128.485,323.81,104.462z"/>
	</g>
</g>
<g>
	<g>
		<path d="M361.225,270.957c-1.773,44.946-11.49,86.963-27.817,119.616c-3.026,6.05-6.232,11.679-9.599,16.883
			c53.49-24.022,92.035-75.566,97.519-136.499H361.225z"/>
	</g>
</g>
<g>
	<g>
		<path d="M178.673,390.572c-16.326-32.653-26.043-74.67-27.817-119.616H90.752c5.484,60.932,44.029,112.476,97.519,136.499
			C184.905,402.252,181.699,396.622,178.673,390.572z"/>
	</g>
</g>
<g>
	<g>
		<path d="M90.752,240.961h60.104c1.774-44.946,11.49-86.963,27.817-119.616c3.026-6.05,6.232-11.679,9.598-16.883
			C134.78,128.484,96.237,180.028,90.752,240.961z"/>
	</g>
</g>
<g>
	<g>
		<path d="M437.032,74.968C388.687,26.625,324.41,0,256.041,0S123.395,26.625,75.051,74.968
			C26.707,123.313,0.082,187.59,0.082,255.959c0,42.809,10.729,84.975,31.079,122.334L0,512l133.707-31.161
			c37.359,20.35,79.525,31.079,122.334,31.079c68.369,0,132.646-26.625,180.991-74.968C485.376,388.605,512,324.328,512,255.959
			S485.375,123.313,437.032,74.968z M256.041,451.928c-108.058,0-195.969-87.911-195.969-195.969S147.983,59.99,256.041,59.99
			S452.01,147.901,452.01,255.959S364.099,451.928,256.041,451.928z"/>
	</g>
</g>
<g>
</g>
<g>
</g>
<g>
</g>
<g>
</g>
<g>
</g>
<g>
</g>
<g>
</g>
<g>
</g>
<g>
</g>
<g>
</g>
<g>
</g>
<g>
</g>
<g>
</g>
<g>
</g>
<g>
</g>
</svg>
